<?xml version="1.0" encoding="UTF-8"?>
<!-- Generated by Pixelmator Pro 3.0.1 -->
<svg width="809" height="647" viewBox="0 0 809 647" xmlns="http://www.w3.org/2000/svg" xmlns:xlink="http://www.w3.org/1999/xlink">
    <g id="Group">
        <path id="Path" fill="#543b0b" fill-rule="evenodd" stroke="none" d="M 120.030304 446.326172 L 281.823242 446.326172 L 490.308075 446.326172 L 656.444458 446.326172 L 745.484863 439.071686 L 752 462.813599 L 186.26767 474.68457 L 122 470 L 120.030304 446.326172 Z"/>
        <path id="path1" fill="#705012" fill-rule="evenodd" stroke="none" d="M 36 438.41217 L 135.9646 445.666687 L 170.327438 454.240143 L 280.705017 460.835144 L 397.330383 464.132629 L 499.377594 462.813599 L 603.507385 457.537628 L 659.737488 453.580627 L 733.669617 445.666687 L 740.958679 445.666687 L 742 474.025085 L 682.645996 482.598572 L 596.218262 491.172058 L 480.634216 496.448029 L 331.728607 495.788513 L 223.433624 490.512543 L 159.914459 485.896057 L 129.716812 481.279572 L 115.138641 481.279572 L 108.890854 458.856628 L 85.9823 445.666687 L 36 438.41217 Z"/>
        <path id="path2" fill="#705012" fill-rule="evenodd" stroke="none" d="M 739.820801 446.666687 L 739.820801 439.41217 L 756.308228 424.903229 L 760.924744 404.458801 L 768.179199 399.842285 L 774.114685 403.139771 L 769.49823 504.04303 L 756.308228 508 L 756.308228 477.663086 L 760.924744 475.68457 L 760.924744 473.706116 L 739.820801 476.344086 L 739.820801 439.41217 L 739.820801 446.666687 Z"/>
        <path id="path3" fill="#d8c9ac" fill-rule="evenodd" stroke="none" d="M 292.734772 290.025085 L 523.559143 148.892487 L 503.7742 234.627228 L 489.265228 350.039429 L 483.989258 443.688171 L 429.9104 445.666687 L 358.684601 443.688171 L 286.139771 438.41217 L 212.935486 431.157715 L 292.734772 290.025085 Z"/>
        <path id="path4" fill="#c7b185" fill-rule="evenodd" stroke="none" d="M 292.075256 289.365601 L 312.519714 297.279572 L 313.179199 282.111115 L 332.304657 297.279572 L 332.304657 268.261658 L 352.749115 279.473114 L 357.365601 254.412201 L 375.831543 264.304657 L 380.448029 239.243713 L 409.465942 247.8172 L 405.508972 222.756287 L 423.315399 235.286743 L 426.612915 210.2258 L 451.673828 219.458771 L 451.673828 194.397858 L 472.118286 203.630829 L 474.096771 181.867371 L 498.498199 190.440857 L 501.1362 167.358429 L 523.559143 177.9104 L 523.559143 148.892487 L 358.025085 248.476715 L 292.075256 289.365601 Z"/>
        <path id="path5" fill="#705012" fill-rule="evenodd" stroke="none" d="M 414.741943 472.706116 L 398.913971 222.096771 L 287.458771 292.003571 L 285.480286 290.025085 L 399.573486 217.480286 L 398.913971 203.630829 L 400.232971 203.630829 L 402.870972 213.523285 L 532.792114 139 L 533.451599 141.638 L 404.189972 217.480286 L 420.017914 475.344086 L 414.741943 472.706116 Z"/>
    </g>
</svg>
