<?xml version="1.0" encoding="UTF-8"?>
<!-- Generated by Pixelmator Pro 3.0.1 -->
<svg width="809" height="647" viewBox="0 0 809 647" xmlns="http://www.w3.org/2000/svg" xmlns:xlink="http://www.w3.org/1999/xlink">
    <g id="Group">
        <path id="Path" fill="#705012" fill-rule="evenodd" stroke="none" d="M 610.820801 445.666687 L 610.820801 438.41217 L 627.308228 423.903229 L 631.924744 403.458801 L 639.179199 398.842285 L 645.114685 402.139771 L 640.49823 503.04303 L 627.308228 507 L 627.308228 476.663086 L 631.924744 474.68457 L 631.924744 472.706116 L 610.820801 475.344086 L 610.820801 438.41217 L 610.820801 445.666687 Z"/>
        <path id="path1" fill="#543b0b" fill-rule="evenodd" stroke="none" d="M 230.949814 446.326172 L 329.215057 446.326172 L 455.838715 446.326172 L 556.741943 446.326172 L 610.820801 439.071686 L 614.777771 462.813599 L 271.179199 474.68457 L 223.035843 472.706116 L 230.949814 446.326172 Z"/>
        <path id="path2" fill="#705012" fill-rule="evenodd" stroke="none" d="M 165 438.41217 L 228.311829 445.666687 L 250.075272 454.240143 L 319.982086 460.835144 L 393.845886 464.132629 L 458.476715 462.813599 L 524.426514 457.537628 L 560.039429 453.580627 L 606.86377 445.666687 L 611.480286 445.666687 L 612.139771 474.025085 L 574.548401 482.598572 L 519.810059 491.172058 L 446.605743 496.448029 L 352.297485 495.788513 L 283.709686 490.512543 L 243.480286 485.896057 L 224.354843 481.279572 L 215.121857 481.279572 L 211.164871 458.856628 L 196.655914 445.666687 L 165 438.41217 Z"/>
        <path id="path3" fill="#d8c9ac" fill-rule="evenodd" stroke="none" d="M 250.734772 290.025085 L 481.559143 148.892487 L 461.7742 234.627228 L 447.265228 350.039429 L 441.989258 443.688171 L 387.9104 445.666687 L 316.684601 443.688171 L 244.139786 438.41217 L 170.935486 431.157715 L 250.734772 290.025085 Z"/>
        <path id="path4" fill="#c7b185" fill-rule="evenodd" stroke="none" d="M 250.075272 289.365601 L 270.519714 297.279572 L 271.179199 282.111115 L 290.304657 297.279572 L 290.304657 268.261658 L 310.749115 279.473114 L 315.365601 254.412201 L 333.831543 264.304657 L 338.448029 239.243713 L 367.465942 247.8172 L 363.508972 222.756287 L 381.315399 235.286743 L 384.612915 210.2258 L 409.673828 219.458771 L 409.673828 194.397858 L 430.118286 203.630829 L 432.096771 181.867371 L 456.498199 190.440857 L 459.1362 167.358429 L 481.559143 177.9104 L 481.559143 148.892487 L 316.025085 248.476715 L 250.075272 289.365601 Z"/>
        <path id="path5" fill="#705012" fill-rule="evenodd" stroke="none" d="M 372.741943 472.706116 L 356.913971 222.096771 L 245.458786 292.003571 L 243.480286 290.025085 L 357.573486 217.480286 L 356.913971 203.630829 L 358.232971 203.630829 L 360.870972 213.523285 L 490.792114 139 L 491.451599 141.638 L 362.189972 217.480286 L 378.017914 475.344086 L 372.741943 472.706116 Z"/>
    </g>
</svg>
