<?xml version="1.0" encoding="UTF-8"?>
<!-- Generated by Pixelmator Pro 3.0.1 -->
<svg width="809" height="647" viewBox="0 0 809 647" xmlns="http://www.w3.org/2000/svg" xmlns:xlink="http://www.w3.org/1999/xlink">
    <g id="Group">
        <path id="Path" fill="#543b0b" fill-rule="evenodd" stroke="none" d="M 109 452 L 280 453 L 489 455 L 656.444458 446.326172 L 745.484863 439.071686 L 752 462.813599 L 420 492 L 122 470 L 109 452 Z"/>
        <path id="path1" fill="#705012" fill-rule="evenodd" stroke="none" d="M 36 438.41217 L 135.9646 451.735657 L 170.327438 467.481567 L 281 473 L 399 476 L 500 474 L 605 468 L 660 463 L 733.669617 451.735657 L 740.958679 451.735657 L 742 503.818359 L 682.645996 519.56427 L 596.218262 535.310181 L 480.634216 545 L 331.728607 543.788757 L 223.433624 534.098999 L 159.914459 525.620422 L 129.716812 517.141846 L 115.138641 517.141846 L 108.890854 475.960144 L 85.9823 451.735657 L 36 438.41217 Z"/>
        <path id="path2" fill="#705012" fill-rule="evenodd" stroke="none" d="M 739.820801 446.666687 L 739.820801 439.41217 L 756.308228 424.903229 L 760.924744 404.458801 L 768.179199 399.842285 L 774.114685 403.139771 L 768 533 L 756 534 L 757 501 L 757 500 L 757 497 L 740 501 L 739.820801 439.41217 L 739.820801 446.666687 Z"/>
        <path id="path3" fill="#d8c9ac" fill-rule="evenodd" stroke="none" d="M 252.734772 290.025085 L 483.559143 148.892487 L 463.7742 234.627228 L 449.265228 350.039429 L 443.989258 443.688171 L 389.9104 445.666687 L 318.684601 443.688171 L 246.139786 438.41217 L 172.935486 431.157715 L 252.734772 290.025085 Z"/>
        <path id="path4" fill="#c7b185" fill-rule="evenodd" stroke="none" d="M 252.075272 289.365601 L 272.519714 297.279572 L 273.179199 282.111115 L 292.304657 297.279572 L 292.304657 268.261658 L 312.749115 279.473114 L 317.365601 254.412201 L 335.831543 264.304657 L 340.448029 239.243713 L 369.465942 247.8172 L 365.508972 222.756287 L 383.315399 235.286743 L 386.612915 210.2258 L 411.673828 219.458771 L 411.673828 194.397858 L 432.118286 203.630829 L 434.096771 181.867371 L 458.498199 190.440857 L 461.1362 167.358429 L 483.559143 177.9104 L 483.559143 148.892487 L 318.025085 248.476715 L 252.075272 289.365601 Z"/>
        <path id="path5" fill="#705012" fill-rule="evenodd" stroke="none" d="M 374.741943 472.706116 L 358.913971 222.096771 L 247.458786 292.003571 L 245.480286 290.025085 L 359.573486 217.480286 L 358.913971 203.630829 L 360.232971 203.630829 L 362.870972 213.523285 L 492.792114 139 L 493.451599 141.638 L 364.189972 217.480286 L 380.017914 475.344086 L 374.741943 472.706116 Z"/>
        <path id="Path-copy-3" fill="#c8b48d" fill-rule="evenodd" stroke="none" d="M 427.734772 290.025085 L 658.559143 148.892487 L 638.77417 234.627228 L 624.265259 350.039429 L 618.989258 443.688171 L 564.9104 445.666687 L 493.684601 443.688171 L 421.139771 438.41217 L 347.935486 431.157715 L 427.734772 290.025085 Z"/>
        <path id="Path-copy-2" fill="#ac915b" fill-rule="evenodd" stroke="none" d="M 427.075256 289.365601 L 447.519714 297.279572 L 448.179199 282.111115 L 467.304657 297.279572 L 467.304657 268.261658 L 487.749115 279.473114 L 492.365601 254.412201 L 510.831543 264.304657 L 515.448059 239.243713 L 544.465942 247.8172 L 540.508972 222.756287 L 558.31543 235.286743 L 561.612915 210.2258 L 586.673828 219.458771 L 586.673828 194.397858 L 607.118286 203.630829 L 609.096802 181.867371 L 633.49823 190.440857 L 636.13623 167.358429 L 658.559143 177.9104 L 658.559143 148.892487 L 493.025085 248.476715 L 427.075256 289.365601 Z"/>
        <path id="Path-copy" fill="#705012" fill-rule="evenodd" stroke="none" d="M 549.741943 472.706116 L 533.914001 222.096771 L 422.458771 292.003571 L 420.480286 290.025085 L 534.573486 217.480286 L 533.914001 203.630829 L 535.232971 203.630829 L 537.870972 213.523285 L 667.792114 139 L 668.451599 141.638 L 539.189941 217.480286 L 555.017944 475.344086 L 549.741943 472.706116 Z"/>
    </g>
</svg>
