<?xml version="1.0" encoding="UTF-8"?>
<!-- Generated by Pixelmator Pro 3.0.1 -->
<svg width="500" height="400" viewBox="0 0 500 400" xmlns="http://www.w3.org/2000/svg" xmlns:xlink="http://www.w3.org/1999/xlink">
    <path id="Path" fill="#7e735f" fill-rule="evenodd" stroke="none" d="M 159.220398 169.619827 L 156.236435 257.012756 L 154.998871 286.139526 L 154.947998 289.053467 L 162.938828 290.650299 L 170.967819 290.061707 L 175.340317 290.138 L 176.874146 285.792511 L 176.975906 279.9646 L 177.439194 169.937729 L 159.220398 169.619827 Z"/>
    <path id="path1" fill="#726752" fill-rule="evenodd" stroke="none" d="M 150.199203 285.318176 L 150.084717 291.874573 L 183.620041 291.731018 L 183.734528 285.174622 L 150.199203 285.318176 Z"/>
    <path id="Path-copy-2" fill="#7e735f" fill-rule="evenodd" stroke="none" d="M 107.471123 169.619827 L 104.48716 257.012756 L 103.249596 286.139526 L 103.19873 289.053467 L 111.189552 290.650299 L 119.218544 290.061707 L 123.591057 290.138 L 125.12487 285.792511 L 125.226639 279.9646 L 125.689919 169.937729 L 107.471123 169.619827 Z"/>
    <path id="Path-copy" fill="#726752" fill-rule="evenodd" stroke="none" d="M 98.449928 285.318176 L 98.335442 291.874573 L 131.870773 291.731018 L 131.98526 285.174622 L 98.449928 285.318176 Z"/>
    <path id="Path-copy-6" fill="#7e735f" fill-rule="evenodd" stroke="none" d="M 259.074615 168.891235 L 256.090668 256.28418 L 254.853088 285.410919 L 254.802231 288.32489 L 262.79306 289.921692 L 270.822021 289.333099 L 275.194519 289.409393 L 276.728363 285.063904 L 276.83017 279.236023 L 277.293427 169.209137 L 259.074615 168.891235 Z"/>
    <path id="Path-copy-5" fill="#726752" fill-rule="evenodd" stroke="none" d="M 250.053421 286.77536 L 249.93895 293.331757 L 283.474274 293.188202 L 283.588745 286.631805 L 250.053421 286.77536 Z"/>
    <path id="Path-copy-4" fill="#7e735f" fill-rule="evenodd" stroke="none" d="M 207.325348 168.891235 L 204.341385 256.28418 L 203.103821 285.410919 L 203.052948 288.32489 L 211.043777 289.921692 L 219.072769 289.333099 L 223.445282 289.409393 L 224.979095 285.063904 L 225.080856 279.236023 L 225.544144 169.209137 L 207.325348 168.891235 Z"/>
    <path id="Path-copy-3" fill="#726752" fill-rule="evenodd" stroke="none" d="M 198.304153 286.046753 L 198.189667 292.603149 L 231.724991 292.459595 L 231.839478 285.903198 L 198.304153 286.046753 Z"/>
    <path id="Path-copy-10" fill="#7e735f" fill-rule="evenodd" stroke="none" d="M 358.600586 167.577408 L 357.142853 255.009109 L 356.414001 284.153015 L 356.414001 287.067383 L 364.431488 288.524597 L 372.448975 287.79599 L 376.822144 287.79599 L 378.279877 283.424408 L 378.279877 277.595642 L 376.822144 167.577408 L 358.600586 167.577408 Z"/>
    <path id="Path-copy-9" fill="#726752" fill-rule="evenodd" stroke="none" d="M 350.636505 286.77536 L 350.522064 293.331757 L 384.057373 293.188202 L 384.171814 286.631805 L 350.636505 286.77536 Z"/>
    <path id="Path-copy-8" fill="#7e735f" fill-rule="evenodd" stroke="none" d="M 307.908447 167.434036 L 304.924469 254.826981 L 303.68692 283.953735 L 303.636017 286.867676 L 311.626862 288.464508 L 319.655853 287.875916 L 324.028351 287.952209 L 325.562195 283.60672 L 325.663971 277.778809 L 326.127258 167.751938 L 307.908447 167.434036 Z"/>
    <path id="Path-copy-7" fill="#726752" fill-rule="evenodd" stroke="none" d="M 298.887238 286.77536 L 298.772797 293.331757 L 332.308075 293.188202 L 332.422546 286.631805 L 298.887238 286.77536 Z"/>
    <path id="path2" fill="#8e8065" fill-rule="evenodd" stroke="none" d="M 92.643112 291.302002 L 92.452316 302.22934 L 442.329559 303.961975 L 442.520416 293.034668 L 92.643112 291.302002 Z"/>
    <path id="Path-copy-13" fill="#8b7a5b" fill-rule="evenodd" stroke="none" d="M 83.918205 300.192322 L 83.681961 313.721344 L 451.796204 314.731201 L 452.03241 301.202179 L 83.918205 300.192322 Z"/>
    <path id="Path-copy-14" fill="#998560" fill-rule="evenodd" stroke="none" d="M 74.462936 311.33432 L 74.144928 329.546478 L 466.340668 329.102722 L 466.658691 310.890564 L 74.462936 311.33432 Z"/>
    <path id="Path-copy-12" fill="#7e735f" fill-rule="evenodd" stroke="none" d="M 407.108795 167.01062 L 407.177765 254.454437 L 406.957825 283.606598 L 407.008728 286.520538 L 415.050415 287.837646 L 423.053986 286.969299 L 427.426483 286.892975 L 428.807648 282.496643 L 428.705902 276.668732 L 425.327637 166.692719 L 407.108795 167.01062 Z"/>
    <path id="Path-copy-11" fill="#726752" fill-rule="evenodd" stroke="none" d="M 400.199188 286.77536 L 400.084747 293.331757 L 433.620056 293.188202 L 433.734497 286.631805 L 400.199188 286.77536 Z"/>
    <path id="path3" fill="#9e8d6c" fill-rule="evenodd" stroke="none" d="M 104.472778 170.12291 L 102.851501 128.880219 L 430.437469 131.206543 L 431.285278 173.57164 L 104.472778 170.12291 Z"/>
    <path id="Shape" fill="#8b7a5b" fill-rule="evenodd" stroke="none" d="M 105.319946 165.065063 L 130.30188 164.81134 L 129.786621 154.98201 L 126.380684 155.051514 L 125.605774 161.847305 L 111.698326 162.03241 L 111.002167 138.280853 L 144.572464 138.526367 L 145.942001 164.652481 L 168.837341 164.419952 L 168.342621 154.982635 L 164.658249 155.054916 L 164.41626 162.114426 L 150.552994 162.28801 L 149.379196 139.895905 L 183.874634 140.276337 L 185.131592 164.254456 L 208.59079 164.01619 L 208.119247 155.021042 L 203.475327 155.108459 L 203.774033 160.807053 L 190.084259 160.989227 L 189.031525 140.906647 L 224.310379 140.573944 L 224.885559 164.681656 L 248.125153 165.313141 L 247.635712 155.976364 L 244.057449 156.038101 L 244.323517 161.113968 L 228.8535 161.307663 L 227.760803 140.462708 L 263.639496 141.032928 L 264.94989 166.031174 L 289.230621 166.723389 L 288.676392 156.150345 L 284.821014 156.213806 L 284.421082 163.246017 L 269.979492 162.526123 L 268.844421 140.873352 L 304.41452 141.573761 L 306.47757 165.70752 L 330.154419 166.436661 L 329.627777 156.390335 L 325.485687 156.455246 L 325.819641 162.825531 L 310.341431 162.982758 L 310.01535 141.410889 L 345.720337 141.300537 L 347.031769 166.31842 L 371.502167 166.146988 L 371.898743 156.675201 L 368.287567 155.784439 L 367.79599 163.342773 L 352.860168 162.550903 L 352.601898 141.105835 L 387.4375 142.04187 L 389.613342 166.020111 L 414.041748 166.828598 L 413.528412 157.035629 L 410.667084 157.075958 L 410.074493 163.923447 L 395.001953 163.08786 L 393.889679 141.869537 L 431.179504 141.868561 L 431.810089 172.678299 L 425.98761 173.675491 L 424.588623 146.988235 L 399.77948 147.533539 L 399.453888 159.171722 L 404.194489 160.084824 L 403.786987 152.310211 L 419.998291 152.017792 L 421.133789 173.67894 L 384.473633 172.749069 L 382.261383 147.918594 L 358.159637 147.511169 L 357.052948 159.702591 L 362.302307 159.636871 L 361.908539 152.125824 L 377.031921 151.841095 L 378.128448 172.75856 L 341.40741 172.813477 L 340.1026 147.922302 L 316.003113 147.567001 L 314.995209 159.326904 L 319.878632 159.261902 L 320.269073 151.095612 L 335.236298 151.709122 L 336.342987 172.821045 L 299.665161 171.98674 L 298.313599 146.203384 L 274.418518 146.804001 L 274.302765 158.998169 L 279.605347 158.923416 L 279.193054 151.058914 L 294.622101 150.731949 L 295.000732 172.882858 L 258.636292 172.080353 L 257.288879 146.376648 L 233.636261 146.150513 L 233.55159 157.896088 L 237.059814 157.84111 L 237.367477 150.26149 L 253.097687 149.90332 L 253.490189 171.239227 L 219.07811 171.344849 L 217.736343 145.748413 L 194.452316 145.580261 L 194.437866 157.701584 L 198.345947 157.637238 L 197.963837 150.347778 L 213.219452 149.988373 L 214.339752 171.359406 L 179.176773 171.467316 L 177.844391 146.050125 L 155.076797 145.916748 L 155.646576 156.786026 L 159.264084 156.720764 L 158.937302 150.486969 L 174.295395 150.113037 L 174.791229 171.480789 L 140.992828 170.820129 L 139.670746 145.59935 L 116.313103 144.802902 L 116.38459 156.748016 L 120.875336 157.413208 L 120.443459 149.174332 L 134.662277 149.555725 L 135.778046 170.840256 L 105.590187 170.220078 L 105.319946 165.065063 Z M 257.919556 60.158966 L 108.935936 119.794464 L 442.309143 126.511475 L 257.919556 60.158966 Z"/>
    <path id="path4" fill="#9e8d6c" fill-rule="evenodd" stroke="none" d="M 100.740135 130.45517 L 102.397362 172.336151 L 432.391113 176.552719 L 432.130646 171.583633 L 105.984116 168.641098 L 105.561234 129.486938 L 100.740135 130.45517 Z"/>
    <path id="path5" fill="#998560" fill-rule="evenodd" stroke="none" d="M 92.809563 133.819397 L 446.14502 135.375092 L 443.687958 127.374695 L 426.083466 121.123596 L 114.187668 118.688263 L 258.358246 61.807831 L 443.687958 127.374695 L 443.607697 125.396759 L 258.913361 58.285919 L 92.878799 125.059998 L 92.809563 133.819397 Z"/>
</svg>
