<?xml version="1.0" encoding="UTF-8"?>
<!-- Generated by Pixelmator Pro 3.0.1 -->
<svg width="814" height="814" viewBox="0 0 814 814" xmlns="http://www.w3.org/2000/svg" xmlns:xlink="http://www.w3.org/1999/xlink">
    <g id="g8">
        <g id="g10">
            <path id="path168" fill="#a16831" fill-rule="evenodd" stroke="none" d="M 379.104004 566.065369 L 681 566.065369 L 681 385.72937 L 379.104004 385.72937 L 379.104004 566.065369"/>
            <path id="path170" fill="#915924" fill-rule="evenodd" stroke="none" d="M 491.510681 385.730713 L 595.618652 385.730713 L 599.822632 400.093353 L 585.201294 400.093353 L 634.961304 507.758698 L 525.550659 520.6427 L 491.510681 385.730713"/>
            <path id="path172" fill="#874f1e" fill-rule="evenodd" stroke="none" d="M 601.998657 476.016052 L 651.758667 476.016052 L 651.758667 395.476044 L 601.998657 395.476044 L 601.998657 476.016052"/>
            <path id="path174" fill="#c07b38" fill-rule="evenodd" stroke="none" d="M 430.663971 400.092041 L 693.824036 400.092041 L 693.824036 373.932037 L 430.663971 373.932037 L 430.663971 400.092041"/>
            <path id="path176" fill="#6d3f19" fill-rule="evenodd" stroke="none" d="M 620.291992 476.017365 L 601.998657 476.017365 L 601.998657 436.438721 Z"/>
            <path id="path178" fill="#502c16" fill-rule="evenodd" stroke="none" d="M 359.223969 52.480042 C 359.223969 46.752075 376.410675 46.752075 376.410675 52.480042 L 376.410675 181.585388 L 359.223969 181.585388 L 359.223969 52.480042"/>
            <path id="path180" fill="#d74520" fill-rule="evenodd" stroke="none" d="M 359.223969 64.021423 C 359.223969 57.481384 376.410675 58.380066 376.410675 64.021423 C 443.141327 65.084045 469.389313 98.098755 477.469299 148.150696 C 458.899994 122.717346 444.705322 112.690735 376.410675 115.321411 C 376.410675 108.78009 359.950653 107.497375 359.223969 115.321411 C 359.223969 98.221375 359.223969 81.121399 359.223969 64.021423"/>
            <path id="path182" fill="#e9541e" fill-rule="evenodd" stroke="none" d="M 359.223969 64.021423 C 359.223969 57.481384 376.410675 58.380066 376.410675 64.021423 L 376.410675 115.321411 C 376.410675 108.78009 359.950653 107.497375 359.223969 115.321411 C 359.223969 98.221375 359.223969 81.121399 359.223969 64.021423"/>
            <path id="path184" fill="#502c16" fill-rule="evenodd" stroke="none" d="M 350.376007 540.325317 L 385.258636 540.325317 L 385.258636 460.300049 L 350.376007 460.300049 L 350.376007 540.325317"/>
            <path id="path186" fill="#2f1d15" fill-rule="evenodd" stroke="none" d="M 350.376007 514.506714 C 351.872009 505.101379 383.505341 511.213379 385.258636 526.301392 L 385.258636 494.28537 L 350.376007 489.66803 L 350.376007 514.506714"/>
            <path id="path188" fill="#6d3f19" fill-rule="evenodd" stroke="none" d="M 188.309326 199.705383 L 164.038666 205.15741 C 156.783997 206.7854 151.042648 185.549377 158.305328 183.976013 L 256.931976 162.604004 L 188.309326 199.705383"/>
            <path id="path190" fill="#6d3f19" fill-rule="evenodd" stroke="none" d="M 604.241333 83.321411 L 631.547974 78.19342 C 639.710632 76.661377 646.169312 100.792053 637.997314 102.261353 L 527.034607 122.217346 L 604.241333 83.321411"/>
            <path id="path192" fill="#c07b38" fill-rule="evenodd" stroke="none" d="M 583.933289 469.733368 L 583.618652 470.301361 C 563.782654 506.08139 529.721313 526.560059 490.049316 526.560059 L 442.989319 526.560059 L 442.989319 683.476013 L 610.762695 683.476013 C 639.06665 683.476013 662.147949 659.437378 662.147949 629.96405 L 662.147949 591.526733 L 668.138672 587.926697 C 688.61731 575.610718 702.027954 557.413391 708.147949 533.624023 L 724.588013 469.733368 C 677.702637 469.733368 630.818665 469.733368 583.933289 469.733368"/>
            <path id="path194" fill="#2f1d15" fill-rule="evenodd" stroke="none" d="M 74.409332 400.292023 L 72.659332 401.150696 C 50.47506 412.02536 38.839066 435.720032 43.791199 459.925354 L 50.084938 490.685364 C 64.409332 560.696045 117.740005 612.301392 174.810654 661.881348 L 176.807999 663.616028 C 191.29599 676.202698 207.486664 682.837402 225.141327 683.43335 L 74.409332 400.292023"/>
            <path id="path196" fill="#6d3f19" fill-rule="evenodd" stroke="none" d="M 605.02533 469.733368 L 604.694641 470.301361 C 584.038635 506.08139 548.567932 526.560059 507.251953 526.560059 L 394.062653 526.560059 C 344.493317 526.560059 301.926666 502.273376 276.699982 459.602722 C 255.14801 423.148041 216.097321 400.292023 171.611984 400.292023 L 74.409332 400.292023 L 79.236397 490.685364 C 82.97506 560.696045 128.5 612.305359 178.077316 661.881348 L 179.810654 663.616028 C 193.014664 676.820068 209.084 683.476013 227.757324 683.476013 L 632.966675 683.476013 C 662.43866 683.476013 686.477356 659.437378 686.477356 629.96405 L 686.477356 591.526733 L 692.713318 587.926697 C 714.042603 575.610718 728.007996 557.413391 734.381287 533.624023 L 751.501282 469.733368 C 702.674683 469.733368 653.849304 469.733368 605.02533 469.733368"/>
            <path id="path198" fill="#874f1e" fill-rule="evenodd" stroke="none" d="M 379.104004 424.04538 L 681 424.04538 L 681 417.816071 L 379.104004 417.816071 L 379.104004 424.04538"/>
            <path id="path200" fill="#6d3f19" fill-rule="evenodd" stroke="none" d="M 499.605347 417.816071 L 593.391968 417.816071 L 596.27063 424.04538 L 501.179993 424.04538 L 499.605347 417.816071"/>
            <path id="path202" fill="#874f1e" fill-rule="evenodd" stroke="none" d="M 379.104004 451.136047 L 681 451.136047 L 681 444.904053 L 379.104004 444.904053 L 379.104004 451.136047"/>
            <path id="path204" fill="#502c16" fill-rule="evenodd" stroke="none" d="M 116.559982 591.526733 C 133.871994 616.421387 155.556 639.361328 178.077316 661.881348 L 179.810654 663.616028 C 193.014664 676.820068 209.084 683.476013 227.757324 683.476013 L 632.966675 683.476013 C 662.43866 683.476013 686.477356 659.437378 686.477356 629.96405 L 686.477356 591.526733 L 241.12265 591.526733 C 171.599991 591.526733 112.110657 553.552002 82.841202 490.490692 L 78.755737 481.688019 L 78.755737 481.688019 L 79.236397 490.685364 C 81.276527 528.892029 95.763062 561.621338 116.559982 591.526733"/>
            <path id="path206" fill="#6d3f19" fill-rule="evenodd" stroke="none" d="M 506.441345 444.904053 L 605.91333 444.904053 L 608.791992 451.136047 L 508.014648 451.136047 L 506.441345 444.904053"/>
            <path id="path208" fill="#d9c4ab" fill-rule="evenodd" stroke="none" d="M 176.414658 179.761353 C 319.023987 147.614685 461.631989 115.468018 604.241333 83.321411 C 530.50531 260.277405 530.574646 409.772034 574.486633 542.952026 C 447.609344 518.328003 320.733337 493.706726 193.856003 469.084015 C 165.00267 372.642731 153.277328 276.202698 176.414658 179.761353"/>
            <path id="path210" fill="#b6a289" fill-rule="evenodd" stroke="none" d="M 574.486633 542.952026 C 447.609344 518.328003 320.733337 493.706726 193.856003 469.084015 C 165.00267 372.642731 153.277328 276.202698 176.414658 179.761353 C 195.581329 273.753357 244.455994 341.57605 321.075989 384.954681 C 295.249329 353.700043 279.873322 313.954712 275.933319 264.917358 C 315.934662 324.348083 373.751984 370.325378 447.269318 404.446716 C 399.450653 395.604034 359.661316 375.67337 326.205322 346.993378 C 374.779999 429.769379 461.61731 493.008057 574.486633 542.952026"/>
            <path id="path212" fill="#6d3f19" fill-rule="evenodd" stroke="none" d="M 318.766663 504.465363 C 302.016022 493.337372 287.708008 478.221375 276.699982 459.602722 C 255.14801 423.148041 216.097321 400.292023 171.611984 400.292023 L 126.911987 400.292023 L 126.911987 532.692017 L 318.766663 532.692017 L 318.766663 504.465363"/>
            <path id="path214" fill="#502c16" fill-rule="evenodd" stroke="none" d="M 679.838684 550.934692 L 679.838684 547.297363 L 305.062653 547.297363 C 276.208008 547.297363 249.440002 537.936035 226.853333 520.802734 C 204.213318 503.630707 185.746658 478.63739 173.553329 447.420013 L 170.17334 448.738708 C 182.610657 480.58139 201.490662 506.108032 224.666656 523.686707 C 247.893311 541.30542 275.410675 550.934692 305.062653 550.934692 Z M 679.569336 571.196045 L 271.659973 571.196045 C 239.442657 571.196045 209.545319 561.58667 184.310654 543.998657 C 159.102661 526.430664 138.558655 500.905365 125.018661 469.05069 L 128.35466 467.630707 C 141.621338 498.838715 161.726654 523.832031 186.384003 541.016052 C 211.011993 558.181396 240.199982 567.560059 271.659973 567.560059 L 679.569336 567.560059 L 679.569336 571.196045 L 679.569336 571.196045"/>
            <path id="path216" fill="#422617" fill-rule="evenodd" stroke="none" d="M 610.463989 462.31604 L 643.294617 462.31604 L 643.294617 409.177399 L 610.463989 409.177399 L 610.463989 462.31604"/>
            <path id="path218" fill="#874f1e" fill-rule="evenodd" stroke="none" d="M 608.667969 429.592041 L 624.570618 429.592041 L 624.570618 405.35202 L 629.57196 405.35202 L 629.57196 429.592041 L 647.269348 429.592041 L 647.269348 434.208038 L 629.57196 434.208038 L 629.57196 466.1427 L 624.570618 466.1427 L 624.570618 434.208038 L 608.667969 434.208038 L 608.667969 429.592041"/>
            <path id="path220" fill="#5f90d3" fill-rule="evenodd" stroke="none" visibility="hidden" d="M 771.542603 638.16803 C 771.542603 708.513367 606.911987 765.534973 403.827972 765.534973 C 200.745316 765.534973 36.114532 708.513367 36.114532 638.16803 L 771.542603 638.16803"/>
            <path id="path222" fill="#2f1d15" fill-rule="evenodd" stroke="none" d="M 74.409332 400.292023 L 72.659332 401.150696 C 50.47506 412.02536 38.839066 435.720032 43.791199 459.925354 L 50.084938 490.685364 C 64.409332 560.696045 117.740005 612.301392 174.810654 661.881348 L 176.807999 663.616028 C 191.29599 676.202698 207.486664 682.837402 225.141327 683.43335 L 74.409332 400.292023"/>
            <path id="path224" fill="#21334b" fill-rule="evenodd" stroke="none" visibility="hidden" d="M 155.509323 644.83606 C 161.861328 650.56134 168.311996 656.23468 174.810654 661.881348 L 176.807999 663.616028 C 191.29599 676.202698 207.486664 682.837402 225.141327 683.43335 L 204.59465 644.83606 L 155.509323 644.83606"/>
            <path id="path226" fill="#502c16" fill-rule="evenodd" stroke="none" d="M 116.559982 591.526733 C 133.871994 616.421387 155.556 639.361328 178.077316 661.881348 L 179.810654 663.616028 C 193.014664 676.820068 209.084 683.476013 227.757324 683.476013 L 632.966675 683.476013 C 662.43866 683.476013 686.477356 659.437378 686.477356 629.96405 L 686.477356 591.526733 L 241.12265 591.526733 C 171.599991 591.526733 112.110657 553.552002 82.841202 490.490692 L 78.755737 481.688019 L 78.755737 481.688019 L 79.236397 490.685364 C 81.276527 528.892029 95.763062 561.621338 116.559982 591.526733"/>
            <path id="path228" fill="#334b6e" fill-rule="evenodd" stroke="none" visibility="hidden" d="M 161.349335 644.83606 C 166.834656 650.56134 172.429321 656.23468 178.077316 661.881348 L 179.810654 663.616028 C 193.014664 676.820068 209.084 683.476013 227.757324 683.476013 L 632.966675 683.476013 C 657.281311 683.476013 677.895996 667.112061 684.366638 644.83606 L 161.349335 644.83606"/>
            <path id="path230" fill="#8ebae7" fill-rule="evenodd" stroke="none" visibility="hidden" d="M 771.542603 638.16803 C 771.542603 649.298706 606.911987 658.320068 403.827972 658.320068 C 200.745316 658.320068 36.114532 649.298706 36.114532 638.16803 C 36.114532 632.892029 73.141197 628.090698 133.710663 624.497375 C 138.445328 629.101379 143.277328 633.652039 148.185333 638.16803 L 685.847961 638.16803 C 686.261292 635.493347 686.477356 632.7547 686.477356 629.96405 L 686.477356 625.278687 C 739.583984 628.772034 771.542603 633.266724 771.542603 638.16803"/>
            <path id="path232" fill="#c7e2f6" fill-rule="evenodd" stroke="none" visibility="hidden" d="M 771.542603 638.16803 C 771.542603 640.13739 766.365356 642.040039 756.755981 643.840027 C 690.967957 645.865356 592.549316 647.153381 482.542664 647.153381 C 284.470673 647.153381 123.901337 642.980042 123.901337 637.833374 C 123.901337 636.740051 131.161331 635.690674 144.457336 634.717407 C 145.694656 635.870728 146.937332 637.02002 148.185333 638.16803 L 685.847961 638.16803 C 686.25061 635.557373 686.466675 632.885376 686.475952 630.165405 C 710.677307 630.601379 732.713318 631.112061 752.086609 631.685364 C 764.697327 633.720032 771.542603 635.900024 771.542603 638.16803"/>
        </g>
    </g>
</svg>
